PathFileType	4	(x/y/z)	S01_BK_Cal.trc
DataRate	CameraRate	NumFrames	NumMarkers	Units	OrigDataRate	OrigDataStartFrame	OrigNumFrames
240	240	10	51	mm	240	601	2400
Frame#	Time	Sternum			R.Acromium			L.Acromium			Top.Head			R.ASIS			L.ASIS			R.PSIS			L.PSIS			R.Great.Tro			L.Great.Tro			R.Iliac.Crest			L.Iliac.Crest			V.Sacral			R.Thigh.Upper.Post			R.Thigh.Lower.Ant			R.Thigh.Lower.Post			R.Thigh.Upper.Ant			R.Knee.Lat			R.Knee.Med			R.Shank.Upper.Post			R.Shank.Lower.Ant			R.Shank.Lower.Post			R.Shank.Upper.Ant			R.Ankle.Lat			R.Ankle.Med			R.Heel.Upper			R.Heel.Med			R.Heel.Lat			R.Toe.Lat			R.Toe.Med			R.Toe.Tip			L.Thigh.Upper.Post			L.Thigh.Lower.Ant			L.Thigh.Lower.Post			L.Thigh.Upper.Ant			L.Knee.Lat			L.Knee.Med			L.Shank.Upper.Post			L.Shank.Lower.Ant			L.Shank.Lower.Post			L.Shank.Upper.Ant			L.Ankle.Lat			L.Ankle.Med			L.Heel.Upper			L.Heel.Med			L.Heel.Lat			L.Toe.Lat			L.Toe.Med			L.Toe.Tip			Cervical.Spine			Back			
		X1	Y1	Z1	X2	Y2	Z2	X3	Y3	Z3	X4	Y4	Z4	X5	Y5	Z5	X6	Y6	Z6	X7	Y7	Z7	X8	Y8	Z8	X9	Y9	Z9	X10	Y10	Z10	X11	Y11	Z11	X12	Y12	Z12	X13	Y13	Z13	X14	Y14	Z14	X15	Y15	Z15	X16	Y16	Z16	X17	Y17	Z17	X18	Y18	Z18	X19	Y19	Z19	X20	Y20	Z20	X21	Y21	Z21	X22	Y22	Z22	X23	Y23	Z23	X24	Y24	Z24	X25	Y25	Z25	X26	Y26	Z26	X27	Y27	Z27	X28	Y28	Z28	X29	Y29	Z29	X30	Y30	Z30	X31	Y31	Z31	X32	Y32	Z32	X33	Y33	Z33	X34	Y34	Z34	X35	Y35	Z35	X36	Y36	Z36	X37	Y37	Z37	X38	Y38	Z38	X39	Y39	Z39	X40	Y40	Z40	X41	Y41	Z41	X42	Y42	Z42	X43	Y43	Z43	X44	Y44	Z44	X45	Y45	Z45	X46	Y46	Z46	X47	Y47	Z47	X48	Y48	Z48	X49	Y49	Z49	X50	Y50	Z50	X51	Y51	Z51	

601	2.5	730.67	1272.4	274.54	571.84	1508.5	458.1	537.98	1523.2	132.4	470.51	1814.5	306.63	699.97	999.68	428.28	699.5	1000.8	159	462.83	1031.9	337.36	460.14	1029.7	233.34	625.49	945.46	508.63	594.01	945.76	80.591	607.33	1095.2	492.72	585.21	1082.3	88.812	450.56	993.58	283.58	657.28	641.62	514.08	736.32	578	498.05	671.75	553.52	500.83	725.38	667.66	509.64	702.66	489.8	500.26	711.96	480.96	360.02	598.83	363.56	530.35	620.22	262.74	490.74	567.25	300.27	523.03	649.94	328.82	505.97	482.09	113.16	498.15	512.05	106.46	404.49	406.53	81.488	444.18	417.45	48.634	416.72	413.84	53.146	481.22	601.61	34.981	539.41	634.29	40.091	415.06	697.12	51.604	471	602.74	658.15	81.301	694.19	598.93	63.943	625.81	569.89	89.979	663.05	689.33	56.585	683.69	491.22	71.566	722.29	487.14	207.19	595.51	382.42	48.721	621.85	276.09	68.784	569.61	308.77	48.94	648.84	348	62.186	473.49	113.3	79.046	504.42	117.89	173.88	400.01	82.997	124.02	409.28	54.082	155.43	407.58	57.983	93.605	610.36	37.935	45.146	634.77	45.594	167.48	697.34	55.84	117.65	469.8	1550.1	303.67	428.98	1228.7	312.12
602	2.5042	730.67	1272.4	274.54	571.83	1508.5	458.1	537.92	1523.2	132.4	470.47	1814.5	306.62	699.97	999.69	428.28	699.49	1000.9	159	462.82	1032	337.36	460.14	1029.7	233.34	625.49	945.47	508.62	594.01	945.77	80.586	607.34	1095.2	492.71	585.22	1082.3	88.819	450.55	993.59	283.57	657.27	641.62	514.07	736.31	578.01	498.04	671.74	553.53	500.83	725.37	667.67	509.64	702.66	489.8	500.26	711.95	480.96	360.01	598.83	363.57	530.34	620.22	262.74	490.74	567.25	300.27	523.02	649.93	328.83	505.97	482.09	113.16	498.14	512.05	106.46	404.49	406.53	81.489	444.18	417.45	48.635	416.72	413.84	53.147	481.22	601.61	34.982	539.41	634.29	40.093	415.06	697.12	51.604	471.01	602.74	658.16	81.286	694.19	598.94	63.942	625.79	569.9	89.969	663.05	689.34	56.58	683.67	491.23	71.562	722.27	487.15	207.18	595.5	382.42	48.717	621.85	276.1	68.781	569.6	308.78	48.937	648.83	348.01	62.183	473.49	113.3	79.044	504.42	117.89	173.88	400.01	82.995	124.02	409.28	54.082	155.42	407.58	57.981	93.603	610.36	37.935	45.146	634.77	45.596	167.48	697.34	55.842	117.65	469.78	1550.1	303.67	428.98	1228.7	312.12
603	2.5083	730.67	1272.5	274.53	571.82	1508.5	458.1	537.86	1523.2	132.4	470.44	1814.5	306.62	699.96	999.7	428.27	699.49	1000.9	159	462.82	1032	337.36	460.13	1029.7	233.33	625.48	945.47	508.62	594.01	945.78	80.582	607.34	1095.2	492.71	585.22	1082.3	88.826	450.55	993.6	283.57	657.26	641.63	514.07	736.31	578.02	498.04	671.73	553.53	500.83	725.36	667.67	509.63	702.65	489.8	500.26	711.95	480.97	360.01	598.82	363.57	530.34	620.21	262.74	490.74	567.24	300.27	523.02	649.93	328.83	505.97	482.09	113.16	498.14	512.04	106.46	404.49	406.53	81.491	444.18	417.45	48.636	416.72	413.84	53.148	481.22	601.61	34.983	539.41	634.29	40.094	415.06	697.12	51.604	471.01	602.73	658.17	81.271	694.19	598.95	63.94	625.78	569.91	89.959	663.05	689.35	56.575	683.66	491.24	71.558	722.24	487.15	207.18	595.49	382.43	48.712	621.84	276.1	68.779	569.59	308.78	48.933	648.82	348.01	62.181	473.49	113.3	79.043	504.42	117.89	173.87	400	82.993	124.01	409.28	54.081	155.42	407.58	57.979	93.601	610.36	37.935	45.146	634.77	45.598	167.48	697.34	55.845	117.65	469.75	1550.1	303.67	428.97	1228.7	312.12
604	2.5125	730.68	1272.5	274.52	571.8	1508.5	458.1	537.8	1523.3	132.4	470.41	1814.5	306.62	699.96	999.72	428.27	699.48	1000.9	159	462.81	1032	337.35	460.13	1029.7	233.33	625.48	945.48	508.61	594	945.79	80.577	607.34	1095.2	492.7	585.23	1082.4	88.833	450.54	993.61	283.56	657.26	641.64	514.07	736.3	578.03	498.03	671.72	553.54	500.82	725.35	667.68	509.62	702.64	489.81	500.26	711.93	480.97	360.01	598.81	363.57	530.34	620.2	262.75	490.74	567.23	300.28	523.02	649.92	328.84	505.97	482.08	113.16	498.14	512.04	106.46	404.49	406.53	81.491	444.18	417.45	48.637	416.73	413.84	53.149	481.22	601.61	34.984	539.41	634.29	40.095	415.06	697.12	51.604	471.01	602.73	658.18	81.257	694.18	598.96	63.937	625.77	569.92	89.949	663.05	689.36	56.569	683.65	491.25	71.554	722.22	487.16	207.18	595.48	382.43	48.707	621.83	276.11	68.776	569.58	308.78	48.93	648.81	348.02	62.178	473.49	113.3	79.041	504.41	117.89	173.87	400	82.991	124.01	409.28	54.081	155.42	407.58	57.977	93.599	610.36	37.934	45.147	634.77	45.6	167.47	697.34	55.847	117.65	469.73	1550.1	303.67	428.97	1228.7	312.12
605	2.5167	730.68	1272.5	274.52	571.79	1508.5	458.1	537.75	1523.3	132.41	470.38	1814.5	306.61	699.96	999.73	428.26	699.48	1000.9	159	462.81	1032	337.35	460.12	1029.7	233.33	625.47	945.49	508.61	594	945.8	80.571	607.35	1095.2	492.69	585.23	1082.4	88.84	450.54	993.62	283.56	657.25	641.64	514.06	736.29	578.05	498.03	671.71	553.55	500.82	725.34	667.69	509.61	702.63	489.82	500.25	711.92	480.98	360.01	598.8	363.58	530.34	620.2	262.75	490.74	567.22	300.28	523.02	649.91	328.84	505.97	482.08	113.16	498.14	512.04	106.46	404.49	406.53	81.492	444.18	417.45	48.637	416.73	413.84	53.149	481.22	601.61	34.985	539.41	634.29	40.097	415.06	697.12	51.604	471.01	602.72	658.19	81.243	694.17	598.96	63.935	625.75	569.93	89.94	663.04	689.37	56.563	683.63	491.27	71.55	722.2	487.17	207.17	595.47	382.44	48.703	621.82	276.11	68.773	569.57	308.78	48.926	648.8	348.02	62.176	473.48	113.3	79.039	504.41	117.89	173.87	400	82.989	124.01	409.28	54.08	155.42	407.57	57.974	93.597	610.36	37.934	45.147	634.77	45.602	167.47	697.33	55.849	117.65	469.7	1550.1	303.67	428.97	1228.7	312.12
606	2.5208	730.68	1272.6	274.51	571.78	1508.5	458.1	537.71	1523.3	132.41	470.35	1814.5	306.6	699.95	999.75	428.25	699.47	1000.9	159	462.8	1032	337.34	460.11	1029.7	233.32	625.47	945.5	508.6	594	945.81	80.565	607.35	1095.3	492.68	585.24	1082.4	88.846	450.53	993.63	283.55	657.24	641.65	514.06	736.28	578.06	498.03	671.7	553.56	500.82	725.33	667.69	509.61	702.62	489.82	500.25	711.91	480.98	360.01	598.79	363.58	530.34	620.19	262.75	490.74	567.21	300.29	523.02	649.9	328.85	505.97	482.08	113.16	498.14	512.04	106.46	404.49	406.53	81.492	444.18	417.45	48.638	416.73	413.84	53.149	481.22	601.61	34.985	539.41	634.29	40.098	415.06	697.12	51.605	471.01	602.71	658.2	81.229	694.17	598.97	63.931	625.74	569.94	89.931	663.04	689.38	56.556	683.62	491.28	71.546	722.18	487.18	207.17	595.45	382.44	48.699	621.81	276.12	68.77	569.56	308.79	48.923	648.79	348.02	62.173	473.48	113.3	79.036	504.41	117.89	173.86	400	82.987	124.01	409.27	54.079	155.42	407.57	57.971	93.595	610.36	37.933	45.148	634.77	45.604	167.47	697.33	55.851	117.65	469.68	1550.1	303.66	428.96	1228.7	312.12
607	2.525	730.68	1272.6	274.51	571.76	1508.5	458.1	537.66	1523.3	132.41	470.32	1814.5	306.6	699.95	999.76	428.25	699.47	1000.9	159	462.8	1032	337.34	460.11	1029.8	233.32	625.46	945.51	508.6	593.99	945.82	80.559	607.35	1095.3	492.67	585.24	1082.4	88.85	450.52	993.64	283.55	657.22	641.66	514.06	736.27	578.07	498.02	671.69	553.57	500.81	725.32	667.7	509.6	702.61	489.83	500.25	711.9	480.99	360	598.78	363.58	530.33	620.18	262.76	490.74	567.2	300.29	523.02	649.89	328.85	505.97	482.08	113.16	498.14	512.04	106.46	404.49	406.53	81.492	444.18	417.45	48.639	416.73	413.84	53.149	481.22	601.61	34.986	539.41	634.29	40.099	415.06	697.12	51.606	471.01	602.7	658.21	81.217	694.16	598.98	63.928	625.72	569.95	89.923	663.03	689.39	56.549	683.6	491.29	71.542	722.15	487.19	207.17	595.44	382.45	48.695	621.8	276.12	68.767	569.55	308.79	48.919	648.78	348.03	62.171	473.48	113.3	79.034	504.41	117.89	173.86	400	82.985	124	409.27	54.077	155.42	407.57	57.969	93.593	610.36	37.933	45.149	634.77	45.606	167.47	697.33	55.853	117.65	469.65	1550.1	303.66	428.96	1228.7	312.12
608	2.5292	730.68	1272.6	274.51	571.75	1508.6	458.1	537.62	1523.3	132.41	470.29	1814.5	306.59	699.94	999.78	428.24	699.46	1001	159	462.79	1032	337.33	460.1	1029.8	233.31	625.46	945.52	508.59	593.99	945.84	80.552	607.35	1095.3	492.67	585.25	1082.4	88.854	450.52	993.66	283.54	657.21	641.67	514.06	736.26	578.08	498.02	671.67	553.58	500.81	725.31	667.71	509.59	702.6	489.83	500.25	711.89	481	360	598.77	363.59	530.33	620.18	262.76	490.74	567.19	300.3	523.02	649.88	328.86	505.97	482.08	113.16	498.14	512.04	106.46	404.49	406.53	81.492	444.18	417.45	48.639	416.73	413.84	53.148	481.22	601.61	34.986	539.41	634.29	40.101	415.06	697.12	51.606	471.01	602.69	658.22	81.205	694.15	598.99	63.924	625.7	569.96	89.916	663.02	689.4	56.542	683.59	491.3	71.538	722.13	487.2	207.16	595.43	382.45	48.691	621.79	276.13	68.765	569.54	308.79	48.916	648.77	348.03	62.169	473.48	113.3	79.032	504.41	117.89	173.86	400	82.983	124	409.27	54.076	155.41	407.57	57.966	93.592	610.36	37.932	45.15	634.77	45.608	167.47	697.33	55.855	117.65	469.63	1550.1	303.66	428.96	1228.7	312.12
609	2.5333	730.68	1272.7	274.51	571.74	1508.6	458.1	537.59	1523.3	132.41	470.26	1814.6	306.58	699.94	999.8	428.23	699.45	1001	158.99	462.78	1032	337.32	460.09	1029.8	233.31	625.45	945.53	508.59	593.98	945.85	80.545	607.35	1095.3	492.66	585.25	1082.5	88.857	450.51	993.67	283.53	657.2	641.67	514.06	736.25	578.1	498.02	671.66	553.59	500.81	725.3	667.72	509.58	702.58	489.84	500.25	711.87	481.01	360	598.76	363.59	530.33	620.17	262.76	490.75	567.18	300.3	523.02	649.87	328.87	505.97	482.07	113.15	498.14	512.04	106.47	404.49	406.53	81.491	444.18	417.45	48.64	416.73	413.84	53.147	481.22	601.61	34.986	539.41	634.28	40.102	415.06	697.12	51.607	471.01	602.68	658.23	81.195	694.14	598.99	63.92	625.69	569.96	89.91	663.01	689.41	56.535	683.57	491.31	71.535	722.11	487.21	207.16	595.41	382.45	48.687	621.78	276.13	68.762	569.53	308.79	48.913	648.75	348.04	62.166	473.47	113.3	79.03	504.41	117.89	173.86	400	82.981	124	409.27	54.074	155.41	407.57	57.962	93.59	610.36	37.932	45.15	634.77	45.609	167.47	697.33	55.856	117.65	469.61	1550.2	303.66	428.95	1228.7	312.12
610	2.5375	730.68	1272.7	274.51	571.72	1508.6	458.1	537.55	1523.3	132.41	470.24	1814.6	306.56	699.93	999.81	428.22	699.45	1001	158.99	462.78	1032	337.32	460.08	1029.8	233.3	625.45	945.54	508.58	593.97	945.86	80.538	607.35	1095.3	492.65	585.25	1082.5	88.858	450.5	993.68	283.52	657.19	641.68	514.05	736.24	578.11	498.01	671.65	553.6	500.81	725.28	667.73	509.58	702.57	489.85	500.25	711.86	481.01	360	598.75	363.59	530.33	620.16	262.76	490.75	567.17	300.31	523.02	649.86	328.87	505.97	482.07	113.15	498.14	512.04	106.47	404.5	406.53	81.49	444.18	417.45	48.64	416.73	413.84	53.146	481.22	601.61	34.986	539.41	634.28	40.104	415.06	697.12	51.608	471.01	602.67	658.24	81.186	694.12	599	63.916	625.67	569.97	89.905	663	689.42	56.529	683.55	491.32	71.532	722.09	487.21	207.15	595.4	382.46	48.684	621.77	276.13	68.76	569.52	308.79	48.909	648.74	348.04	62.164	473.47	113.29	79.028	504.4	117.89	173.86	400	82.978	124	409.27	54.072	155.41	407.57	57.959	93.588	610.36	37.932	45.151	634.77	45.61	167.47	697.33	55.858	117.65	469.58	1550.2	303.65	428.95	1228.7	312.12
